<?xml version="1.0" encoding="UTF-8"?>
<svg xmlns="http://www.w3.org/2000/svg" viewBox="1.840 -49.552 253.376 62.112" role="img" aria-label="Ordinary.">
  <path d="M22.720 0.640L22.720 0.640Q13.952 0.640 8.896-5.408Q3.840-11.456 3.840-23.040L3.840-23.040Q3.840-34.688 8.896-40.800Q13.952-46.912 22.720-46.912L22.720-46.912Q31.456-46.912 36.432-40.816Q41.408-34.720 41.408-23.040L41.408-23.040Q41.408-11.488 36.432-5.424Q31.456 0.640 22.720 0.640ZM22.720-1.984L22.720-1.984Q30.496-1.984 34.544-7.200Q38.592-12.416 38.592-23.040L38.592-23.040Q38.592-33.760 34.496-39.024Q30.400-44.288 22.720-44.288L22.720-44.288Q15.040-44.288 10.848-38.992Q6.656-33.696 6.656-23.040L6.656-23.040Q6.656-12.384 10.848-7.184Q15.040-1.984 22.720-1.984ZM53.504 0L51.008 0L51.008-33.088L53.312-33.088L53.312-28.160Q54.176-30.400 55.728-31.600Q57.280-32.800 59.072-33.264Q60.864-33.728 62.432-33.728L62.432-33.728Q63.424-33.728 64.416-33.584Q65.408-33.440 66.016-33.088L66.016-33.088L66.016-30.528Q65.344-30.848 64.240-30.976Q63.136-31.104 62.432-31.104L62.432-31.104Q61.248-31.104 59.728-30.768Q58.208-30.432 56.784-29.552Q55.360-28.672 54.432-27.088Q53.504-25.504 53.504-23.040L53.504-23.040L53.504 0ZM85.312 0.640L85.312 0.640Q79.072 0.640 75.264-3.600Q71.456-7.840 71.456-16.640L71.456-16.640Q71.456-21.760 72.960-25.600Q74.464-29.440 77.536-31.584Q80.608-33.728 85.312-33.728L85.312-33.728Q88.288-33.728 90.416-32.928Q92.544-32.128 93.936-30.976Q95.328-29.824 96.080-28.736Q96.832-27.648 97.056-27.072L97.056-27.072L97.056-47.552L99.616-47.552L99.616 0L97.312 0L97.120-6.784Q96.928-6.208 96.320-5.008Q95.712-3.808 94.416-2.496Q93.120-1.184 90.896-0.272Q88.672 0.640 85.312 0.640ZM85.376-1.728L85.376-1.728Q91.872-1.728 94.464-5.392Q97.056-9.056 97.056-17.056L97.056-17.056Q96.992-21.408 95.888-24.608Q94.784-27.808 92.304-29.552Q89.824-31.296 85.568-31.296L85.568-31.296Q80.448-31.296 77.328-27.808Q74.208-24.320 74.208-17.056L74.208-17.056Q74.208-10.176 76.944-5.952Q79.680-1.728 85.376-1.728ZM114.816-42.368L111.776-42.368L111.776-46.208L114.816-46.208L114.816-42.368ZM114.592 0L112.064 0L112.064-33.088L114.592-33.088L114.592 0ZM129.472 0L126.976 0L126.976-33.088L129.280-33.088L129.280-28.160Q130.592-30.528 133.488-32.128Q136.384-33.728 140.384-33.728L140.384-33.728Q143.648-33.728 146.288-32.416Q148.928-31.104 150.464-28.384Q152-25.664 152-21.440L152-21.440L152 0L149.504 0L149.504-21.440Q149.504-26.496 147.056-28.896Q144.608-31.296 140.384-31.296L140.384-31.296Q137.472-31.296 134.976-30.400Q132.480-29.504 130.976-27.680Q129.472-25.856 129.472-23.040L129.472-23.040L129.472 0ZM171.616 0.640L171.616 0.640Q166.720 0.640 163.856-1.792Q160.992-4.224 160.992-8.448L160.992-8.448Q160.992-14.016 164.592-16.560Q168.192-19.104 176.416-19.392L176.416-19.392L184.064-19.648L184.064-22.848Q184.064-26.656 181.744-28.976Q179.424-31.296 174.592-31.296L174.592-31.296Q170.912-31.296 168.416-29.584Q165.920-27.872 165.376-24.256L165.376-24.256L162.688-24.256Q162.944-28.544 165.920-31.136Q168.896-33.728 174.720-33.728L174.720-33.728Q180.032-33.728 183.280-31.088Q186.528-28.448 186.528-22.912L186.528-22.912L186.528 0L184.224 0L184.128-6.720Q181.984-2.592 178.624-0.976Q175.264 0.640 171.616 0.640ZM172.032-1.728L172.032-1.728Q174.112-1.728 176.224-2.480Q178.336-3.232 180.112-4.528Q181.888-5.824 182.976-7.424Q184.064-9.024 184.064-10.688L184.064-10.688L184.064-17.152L177.632-17.024Q172.352-16.928 169.296-16.032Q166.240-15.136 164.928-13.328Q163.616-11.520 163.616-8.640L163.616-8.640Q163.616-5.376 165.920-3.552Q168.224-1.728 172.032-1.728ZM199.904 0L197.408 0L197.408-33.088L199.712-33.088L199.712-28.160Q200.576-30.400 202.128-31.600Q203.680-32.800 205.472-33.264Q207.264-33.728 208.832-33.728L208.832-33.728Q209.824-33.728 210.816-33.584Q211.808-33.440 212.416-33.088L212.416-33.088L212.416-30.528Q211.744-30.848 210.640-30.976Q209.536-31.104 208.832-31.104L208.832-31.104Q207.648-31.104 206.128-30.768Q204.608-30.432 203.184-29.552Q201.760-28.672 200.832-27.088Q199.904-25.504 199.904-23.040L199.904-23.040L199.904 0ZM223.456 10.560L223.456 10.560Q221.024 10.560 220.256 10.304Q219.488 10.048 219.488 10.048L219.488 10.048L219.488 8.320L222.976 8.320Q226.048 8.320 227.520 7.136Q228.992 5.952 229.696 4.224L229.696 4.224L231.392-0.192L218.432-33.088L221.120-33.088L232.736-3.584L244.096-33.088L246.528-33.088L232.064 4.800Q230.816 7.904 228.624 9.232Q226.432 10.560 223.456 10.560ZM253.216 0L249.344 0L249.344-4.928L253.216-4.928L253.216 0Z" fill="#000"/>
</svg>
